<svg width="28" height="24" viewBox="0 0 28 24" fill="none" xmlns="http://www.w3.org/2000/svg">
<mask id="path-1-inside-1_85_7240" fill="white">
<path d="M0 4C0 1.79086 1.79086 0 4 0H24C26.2091 0 28 1.79086 28 4V20C28 22.2091 26.2091 24 24 24H4C1.79086 24 0 22.2091 0 20V4Z"/>
</mask>
<path d="M4 0V0.555556H24V0V-0.555556H4V0ZM28 4H27.4444V20H28H28.5556V4H28ZM24 24V23.4444H4V24V24.5556H24V24ZM0 20H0.555556V4H0H-0.555556V20H0ZM4 24V23.4444C2.09769 23.4444 0.555556 21.9023 0.555556 20H0H-0.555556C-0.555556 22.516 1.48404 24.5556 4 24.5556V24ZM28 20H27.4444C27.4444 21.9023 25.9023 23.4444 24 23.4444V24V24.5556C26.516 24.5556 28.5556 22.516 28.5556 20H28ZM24 0V0.555556C25.9023 0.555556 27.4444 2.09769 27.4444 4H28H28.5556C28.5556 1.48404 26.516 -0.555556 24 -0.555556V0ZM4 0V-0.555556C1.48404 -0.555556 -0.555556 1.48404 -0.555556 4H0H0.555556C0.555556 2.09769 2.09769 0.555556 4 0.555556V0Z" fill="#C7C7C7" mask="url(#path-1-inside-1_85_7240)"/>
<path d="M9.41477 16H8.30682L11.5114 7.27273H12.6023L15.8068 16H14.6989L12.0909 8.65341H12.0227L9.41477 16ZM9.82386 12.5909H14.2898V13.5284H9.82386V12.5909ZM18.223 7.27273V16H17.1662V7.27273H18.223Z" fill="#0A0A0A"/>
</svg>
