<svg width="15" height="14" viewBox="0 0 15 14" fill="none" xmlns="http://www.w3.org/2000/svg">
<path d="M4.44434 8.88965C5.35544 8.88965 6.1388 9.43656 6.48047 10.2227H13.334C13.8254 10.2229 14.2226 10.6199 14.2227 11.1113C14.2227 11.6029 13.8255 11.9998 13.334 12H6.48047C6.1388 12.7861 5.35545 13.334 4.44434 13.334C3.53337 13.3339 2.74983 12.786 2.4082 12H0.888672C0.397209 11.9998 0 11.6028 0 11.1113C5.84074e-05 10.6199 0.397245 10.2229 0.888672 10.2227H2.4082C2.74983 9.43664 3.53337 8.88978 4.44434 8.88965ZM4.44434 10.2227C4.20889 10.2227 3.98299 10.316 3.81641 10.4824C3.64973 10.6491 3.55569 10.8756 3.55566 11.1113C3.55566 11.3471 3.64971 11.5735 3.81641 11.7402C3.983 11.9067 4.20883 11.9999 4.44434 12C4.68003 12 4.90655 11.9069 5.07324 11.7402C5.23994 11.5735 5.33398 11.3471 5.33398 11.1113C5.33396 10.8756 5.23992 10.6491 5.07324 10.4824C4.90656 10.3159 4.67998 10.2227 4.44434 10.2227ZM9.77832 4.44434C10.6893 4.44446 11.4728 4.9923 11.8145 5.77832H13.334C13.8255 5.77855 14.2227 6.17547 14.2227 6.66699C14.2227 7.15852 13.8255 7.55543 13.334 7.55566H11.8145C11.4728 8.34168 10.6893 8.88952 9.77832 8.88965C8.86721 8.88965 8.08385 8.34178 7.74219 7.55566H0.888672C0.397209 7.55543 1.6043e-08 7.15851 0 6.66699C0 6.17547 0.397209 5.77856 0.888672 5.77832H7.74219C8.08385 4.99221 8.86721 4.44434 9.77832 4.44434ZM9.77832 5.77832C9.54265 5.77832 9.3161 5.87149 9.14941 6.03809C8.98272 6.20478 8.88867 6.43124 8.88867 6.66699C8.88867 6.90274 8.98272 7.1292 9.14941 7.2959C9.3161 7.4625 9.54265 7.55566 9.77832 7.55566C10.0138 7.55558 10.2397 7.46232 10.4062 7.2959C10.5729 7.1292 10.667 6.90274 10.667 6.66699C10.667 6.43124 10.5729 6.20478 10.4062 6.03809C10.2397 5.87167 10.0138 5.7784 9.77832 5.77832ZM5.33398 0C6.24491 0.000170826 7.0285 0.547996 7.37012 1.33398H13.334C13.8255 1.33421 14.2227 1.73113 14.2227 2.22266C14.2226 2.71413 13.8254 3.1111 13.334 3.11133H7.37012C7.0285 3.89732 6.24491 4.44417 5.33398 4.44434C4.4229 4.44434 3.63953 3.89741 3.29785 3.11133H0.888672C0.397245 3.11109 5.84395e-05 2.71413 0 2.22266C0 1.73114 0.397209 1.33422 0.888672 1.33398H3.29785C3.63952 0.547873 4.42287 0 5.33398 0ZM5.33398 1.33398C5.09831 1.33398 4.87176 1.42715 4.70508 1.59375C4.53838 1.76045 4.44434 1.98691 4.44434 2.22266C4.44436 2.45837 4.5384 2.68489 4.70508 2.85156C4.87175 3.01809 5.09836 3.11133 5.33398 3.11133C5.56942 3.11122 5.79535 3.01796 5.96191 2.85156C6.12859 2.68489 6.22263 2.45837 6.22266 2.22266C6.22266 1.98691 6.12861 1.76045 5.96191 1.59375C5.79534 1.42729 5.56947 1.3341 5.33398 1.33398Z" fill="#707070"/>
</svg>
