<svg width="48" height="48" viewBox="0 0 48 48" fill="none" xmlns="http://www.w3.org/2000/svg">
<rect x="4" y="4" width="40" height="40" rx="20" fill="white"/>
<rect x="4" y="4" width="40" height="40" rx="20" stroke="url(#paint0_radial_209_7565)" stroke-width="8"/>
<g clip-path="url(#clip0_209_7565)">
<path d="M31.08 24.635L26.37 23.635L25.37 18.925C25.335 18.75 25.18 18.63 25.005 18.63C24.83 18.63 24.675 18.755 24.64 18.925L23.64 23.635L18.93 24.635C18.755 24.67 18.635 24.825 18.635 25C18.635 25.175 18.76 25.33 18.93 25.365L23.64 26.365L24.64 31.075C24.675 31.25 24.83 31.37 25.005 31.37C25.18 31.37 25.335 31.245 25.37 31.075L26.37 26.365L31.08 25.365C31.255 25.33 31.375 25.175 31.375 25C31.375 24.825 31.25 24.67 31.08 24.635Z" fill="#151515"/>
<path d="M19 21.875C19.175 21.875 19.33 21.75 19.365 21.58L19.75 19.755L21.575 19.37C21.75 19.335 21.87 19.18 21.87 19.005C21.87 18.83 21.745 18.675 21.575 18.64L19.75 18.255L19.365 16.43C19.33 16.255 19.175 16.135 19 16.135C18.825 16.135 18.67 16.26 18.635 16.43L18.25 18.255L16.425 18.64C16.25 18.675 16.13 18.83 16.13 19.005C16.13 19.18 16.255 19.335 16.425 19.37L18.25 19.755L18.635 21.58C18.67 21.755 18.825 21.875 19 21.875Z" fill="#1B0D33"/>
</g>
<defs>
<radialGradient id="paint0_radial_209_7565" cx="0" cy="0" r="1" gradientUnits="userSpaceOnUse" gradientTransform="translate(24 24) rotate(34.5085) scale(29.1247)">
<stop offset="0.533661" stop-color="#F9A8A8"/>
<stop offset="0.70674" stop-color="#3D2785"/>
<stop offset="0.870204" stop-color="#1B0D33"/>
</radialGradient>
<clipPath id="clip0_209_7565">
<rect width="16" height="16" fill="white" transform="translate(16 16)"/>
</clipPath>
</defs>
</svg>
